# xmcd
#
# Track frame offsets: 
#        182
#        15522
#        34127
#        51962
#        66792
#        79990
#        94055
#        109585
#        126707
#        138377
#        149762
#        167895
#
# Disc length: 2545 seconds
#
# Revision: 3
# Processed by: cddbd v1.4PL0 Copyright (c) Steve Scherf et al.
# Submitted via: ExactAudioCopy v0.90b4
#
DISCID=b109ef0c
DTITLE=Sawyer Brown - Outskirts Of Town
DYEAR=1993
DGENRE=Country
TTITLE0=The Boys And Me
TTITLE1=Farmer Tan
TTITLE2=Outskirts Of Town
TTITLE3=Thank God For You
TTITLE4=Listenin' For You
TTITLE5=Eyes Of Love
TTITLE6=Hard To Say
TTITLE7=Drive Away
TTITLE8=Heartbreak Highway
TTITLE9=Love To Be Wanted
TTITLE10=Hold On
TTITLE11=The Boys And Me (Dance Remix)
EXTD=
EXTT0=
EXTT1=
EXTT2=
EXTT3=
EXTT4=
EXTT5=
EXTT6=
EXTT7=
EXTT8=
EXTT9=
EXTT10=
EXTT11=
PLAYORDER=
